# xmcd
#
# Track frame offsets: 
#        150
#        10171
#        21329
#        32380
#        42906
#        54814
#        65756
#        76181
#        85679
#        95861
#        106741
#        117846
#        128162
#        140047
#        151487
#        161246
#        172762
#        181299
#        194431
#        204811
#        214248
#        225674
#        235872
#        246695
#
# Disc length: 3434 seconds
#
# Revision: 1
# Processed by: cddbd v1.5.2PL0 Copyright (c) Steve Scherf et al.
# Submitted via: ExactAudioCopy v0.95b4
#
DISCID=400d6818
DTITLE=Fats Domino - Fats On Fire
DYEAR=1996
DGENRE=R&B
TTITLE0=When I'm Walking Let Me Walk
TTITLE1=I Got A Right To Cry
TTITLE2=There Goes My Heart Again
TTITLE3=Just A Lonely Man
TTITLE4=Red Sails In The Sunset
TTITLE5=Bye baby, bye Bye
TTITLE6=Forever, Forever
TTITLE7=I'm Right
TTITLE8=Can't Go On Without You
TTITLE9=Land Of 1000 Dances
TTITLE10=Song For Rosemary
TTITLE11=Tell Me The Truth, Baby
TTITLE12=I Don't Want To Set The World On Fire
TTITLE13=You Know I Miss You So (Version2)
TTITLE14=Fats On Fire
TTITLE15=The Land Of Make Believe
TTITLE16=Old Man Trouble
TTITLE17=Love Me
TTITLE18=Mary, Oh Mary
TTITLE19=Gotta Get A Job
TTITLE20=The Fat Man (Version 2)
TTITLE21=Valley Of Tears (Versdion 2)
TTITLE22=Fat's Shuffle
TTITLE23=I'm A Fool To Care
EXTD=1st CDin a 3 cd set. (Subtitle MostWanted)
EXTT0=
EXTT1=
EXTT2=
EXTT3=
EXTT4=
EXTT5=
EXTT6=
EXTT7=
EXTT8=
EXTT9=
EXTT10=
EXTT11=
EXTT12=
EXTT13=
EXTT14=
EXTT15=
EXTT16=
EXTT17=
EXTT18=
EXTT19=
EXTT20=
EXTT21=
EXTT22=
EXTT23=
PLAYORDER=
